<svg width="28" height="28" viewBox="0 0 28 28" fill="none" xmlns="http://www.w3.org/2000/svg">
<path d="M14 28C21.7584 28 28 21.7584 28 14C28 6.24162 21.7584 0 14 0C6.24162 0 0 6.24162 0 14C0 21.7584 6.24162 28 14 28Z" fill="#2775CA"/>
<path d="M17.8479 16.2172C17.8479 14.1756 16.6229 13.4756 14.1729 13.1839C12.4229 12.9506 12.0729 12.4839 12.0729 11.6672C12.0729 10.8504 12.6563 10.3256 13.8229 10.3256C14.8729 10.3256 15.4563 10.6756 15.7479 11.5506C15.8063 11.7256 15.9813 11.8422 16.1563 11.8422H17.0895C17.3229 11.8422 17.4979 11.6672 17.4979 11.4339V11.3756C17.2645 10.0922 16.2145 9.10057 14.8729 8.98395V7.58395C14.8729 7.35057 14.6979 7.17557 14.4063 7.11719H13.5313C13.2979 7.11719 13.1229 7.29219 13.0645 7.58395V8.92557C11.3145 9.15895 10.2063 10.3256 10.2063 11.7839C10.2063 13.7089 11.3729 14.4672 13.8229 14.7589C15.4563 15.0506 15.9813 15.4006 15.9813 16.3339C15.9813 17.2673 15.1645 17.9089 14.0563 17.9089C12.5395 17.9089 12.0145 17.2672 11.8395 16.3922C11.7813 16.1589 11.6063 16.0422 11.4313 16.0422H10.4395C10.2063 16.0422 10.0312 16.2172 10.0312 16.4506V16.5089C10.2645 17.9672 11.1979 19.0172 13.1229 19.3089V20.7089C13.1229 20.9422 13.2979 21.1172 13.5895 21.1756H14.4645C14.6979 21.1756 14.8729 21.0006 14.9313 20.7089V19.3089C16.6813 19.0172 17.8479 17.7922 17.8479 16.2172V16.2172Z" fill="white"/>
<path d="M11.0222 22.3403C6.47223 20.707 4.13885 15.632 5.83061 11.1403C6.70561 8.69027 8.63061 6.82365 11.0222 5.94865C11.2556 5.83203 11.3722 5.65703 11.3722 5.36527V4.54865C11.3722 4.31527 11.2556 4.14027 11.0222 4.08203C10.9639 4.08203 10.8472 4.08203 10.7889 4.14027C5.24723 5.89027 2.21385 11.782 3.96385 17.3237C5.01385 20.5903 7.52223 23.0987 10.7889 24.1487C11.0222 24.2653 11.2556 24.1487 11.3139 23.9153C11.3722 23.857 11.3722 23.7987 11.3722 23.682V22.8653C11.3722 22.6903 11.1972 22.457 11.0222 22.3403ZM17.2056 4.14027C16.9722 4.02365 16.7389 4.14027 16.6806 4.37365C16.6222 4.43203 16.6222 4.49027 16.6222 4.60703V5.42365C16.6222 5.65703 16.7972 5.89027 16.9722 6.00703C21.5222 7.64027 23.8556 12.7153 22.1639 17.207C21.2889 19.657 19.3639 21.5237 16.9722 22.3987C16.7389 22.5153 16.6222 22.6903 16.6222 22.982V23.7987C16.6222 24.032 16.7389 24.207 16.9722 24.2653C17.0306 24.2653 17.1472 24.2653 17.2056 24.207C22.7472 22.457 25.7806 16.5653 24.0306 11.0237C22.9806 7.69865 20.4139 5.19027 17.2056 4.14027V4.14027Z" fill="white"/>
</svg>
