<svg width="201" height="50" viewBox="0 0 201 50" fill="none" xmlns="http://www.w3.org/2000/svg">
<path fill-rule="evenodd" clip-rule="evenodd" d="M145.128 14.8161C144.909 14.8001 144.457 14.7541 143.5 14.7541C142.668 14.7541 141.894 14.8321 141.174 14.9821C138.175 15.5621 136.26 17.1901 134.608 18.9121V15.5041H125.213V45.9021H134.608V33.204C134.608 31.704 134.688 30.328 134.857 29.076C135.024 27.826 135.39 26.7521 135.952 25.8561C136.515 24.9581 137.319 24.26 138.364 23.76C139.408 23.26 140.827 23.01 142.624 23.01C143.984 23.0058 145.337 23.2171 146.631 23.636V15.0661C146.139 14.9356 145.636 14.8519 145.128 14.8161ZM169.841 14.8161C169.622 14.8001 169.172 14.7541 168.213 14.7541C167.381 14.7541 166.607 14.8321 165.887 14.9821C162.888 15.5621 160.975 17.1901 159.321 18.9121V15.5041H149.926V45.9021H159.321V33.204C159.321 31.704 159.403 30.328 159.57 29.076C159.737 27.826 160.102 26.7521 160.667 25.8561C161.23 24.9581 162.034 24.26 163.077 23.76C164.123 23.26 165.54 23.01 167.336 23.01C168.697 23.0058 170.05 23.2171 171.344 23.636V15.0661C170.852 14.9356 170.349 14.8519 169.841 14.8161ZM71.7911 13.3501H59.311V4.91805H93.9092V13.3501H81.4291V44.26H71.7911V13.3501ZM112.49 26.9681C112.522 26.234 112.399 25.5013 112.128 24.8177C111.857 24.1341 111.445 23.5148 110.918 23C109.828 21.9 108.425 21.35 106.707 21.35C105.66 21.35 104.737 21.512 103.941 21.838C103.192 22.1345 102.5 22.5581 101.897 23.09C101.332 23.6 100.892 24.19 100.578 24.862C100.266 25.5235 100.085 26.2385 100.044 26.9681H112.49ZM120.473 40.038C118.948 41.9237 116.985 43.4118 114.753 44.3741C112.499 45.3809 110.057 45.9016 107.587 45.9021C105.329 45.9169 103.085 45.5448 100.954 44.802C98.9617 44.1181 97.1243 43.0497 95.5473 41.6581C94.0128 40.2864 92.7826 38.6114 91.9353 36.7401C91.055 34.8281 90.6148 32.69 90.6148 30.328C90.6148 27.968 91.057 25.828 91.9353 23.916C92.7837 22.0448 94.0145 20.3699 95.5493 18.998C97.1264 17.6066 98.9638 16.5382 100.956 15.8541C103.087 15.1115 105.33 14.7394 107.587 14.7541C109.766 14.7541 111.746 15.1201 113.527 15.8541C115.308 16.5861 116.815 17.634 118.053 18.998C119.287 20.364 120.242 22.002 120.914 23.916C121.583 25.83 121.919 27.966 121.919 30.328V33.1981H100.044C100.422 34.9501 101.238 36.344 102.496 37.382C103.752 38.422 105.302 38.94 107.147 38.94C108.695 38.94 110.007 38.604 111.075 37.932C112.16 37.2455 113.108 36.3654 113.872 35.336L120.473 40.038ZM192.819 34.6721V34.1721C192.82 33.8578 192.722 33.5511 192.539 33.295C192.356 33.039 192.097 32.8463 191.798 32.744C190.351 32.2595 188.834 32.0149 187.308 32.0201C183.615 32.0201 181.342 33.488 181.342 36.196V36.308C181.342 38.622 183.274 39.9781 186.058 39.9781C190.092 39.9781 192.819 37.7761 192.819 34.6721ZM172.993 36.648V36.534C172.993 29.9341 178.048 26.886 185.262 26.886C188.331 26.886 190.548 27.394 192.705 28.126V27.6201C192.705 24.0641 190.49 22.09 186.172 22.09C182.876 22.09 180.548 22.71 177.764 23.726L175.606 17.18C178.956 15.714 182.253 14.7541 187.422 14.7541C192.138 14.7541 195.547 15.994 197.706 18.14C199.977 20.396 201 23.726 201 27.788V45.3381H192.648V42.064C190.546 44.378 187.65 45.9021 183.445 45.9021C177.706 45.9021 172.993 42.628 172.993 36.648ZM23.2939 39.98C24.6928 45.29 29.7138 49.342 32.2484 49.176C32.3368 49.17 41.8662 47.3481 47.0822 38.4081C51.1424 31.4521 49.7595 24.736 44.2381 24.59C42.2522 24.738 20.6266 29.864 23.2939 39.982V39.98ZM28.0897 5.01587e-05C24.4938 5.01587e-05 21.0808 0.76805 17.9935 2.13805C17.4533 2.36333 16.9271 2.62046 16.4176 2.90805C16.0679 3.09405 15.7182 3.27805 15.3805 3.47805L15.4609 3.50405C14.4378 4.21005 13.5574 5.03205 12.8358 5.98405C5.69429 15.3921 29.6294 22.23 42.425 22.254C48.3143 26.468 49.9666 10.3861 44.2139 5.92205C39.7258 2.08966 34.0039 -0.0118375 28.0897 5.01587e-05Z" fill="#141823"/>
<path fill-rule="evenodd" clip-rule="evenodd" d="M19.095 5.51601C15.8589 10.246 5.07725 13.58 3.30443 13.06L3.29639 13.04L3.51749 12.614C5.36983 9.1556 8.00035 6.16992 11.2037 3.89001C11.867 3.41601 12.5544 2.97401 13.264 2.56201C14.7695 1.71201 16.3172 1.66001 16.8257 1.64001C21.6256 1.72801 19.1191 5.47801 19.093 5.51601" fill="#5493F7"/>
<mask id="mask0_146_146" style="mask-type:alpha" maskUnits="userSpaceOnUse" x="0" y="16" width="17" height="34">
<path d="M0 16.394H16.476V49.18H0V16.394Z" fill="white"/>
</mask>
<g mask="url(#mask0_146_146)">
<path fill-rule="evenodd" clip-rule="evenodd" d="M16.3795 40.962C16.6207 42.516 16.3735 48.658 16.0479 49.176C15.7705 49.192 15.1876 49.228 13.5052 48.3C10.2408 46.47 7.39847 43.9791 5.16171 40.988C3.52543 38.7972 2.24364 36.3651 1.36281 33.78C0.456087 31.106 -0.00426916 28.3022 3.36443e-05 25.48C-0.00498714 22.3777 0.551976 19.2998 1.64421 16.394H1.64823C3.57783 18.912 5.80893 21.19 7.70436 23.734C9.51135 26.154 11.9957 30.1 12.5002 30.944C15.6398 36.178 16.1403 39.408 16.3795 40.962Z" fill="#5493F7"/>
</g>
<path fill-rule="evenodd" clip-rule="evenodd" d="M52.7223 25.77C52.7223 29.128 52.0791 32.338 50.9153 35.282C47.8601 38.562 27.2536 30.49 27.0506 30.402C24.2325 29.17 15.6539 25.418 14.88 19.526C13.7665 11.05 30.9962 5.14197 38.5679 4.91797C39.4744 4.92797 42.2381 4.95997 43.8481 6.26797C46.6399 8.70011 48.8763 11.6986 50.4069 15.062C51.9375 18.4254 52.727 22.0758 52.7223 25.768V25.77ZM34.7026 46.736C35.9348 42.396 46.7084 37.948 49.0862 37.708C49.3796 37.678 49.5043 37.884 49.3756 38.12C46.8953 42.608 43.223 46.304 38.7789 48.7C36.5317 49.784 34.0594 48.994 34.7026 46.736Z" fill="#5493F7"/>
</svg>
