<svg width="28" height="28" viewBox="0 0 28 28" fill="none" xmlns="http://www.w3.org/2000/svg">
<g clip-path="url(#clip0_1794_6946)">
<path d="M14.0028 25.1059C19.9155 25.1059 24.7087 20.2351 24.7087 14.2268C24.7087 8.2184 19.9155 3.34766 14.0028 3.34766C8.09007 3.34766 3.29688 8.2184 3.29688 14.2268C3.29688 20.2351 8.09007 25.1059 14.0028 25.1059Z" fill="white"/>
<path d="M27.5809 17.3868C25.7109 24.8868 18.1138 29.4512 10.612 27.5809C3.11335 25.711 -1.45158 18.1143 0.419372 10.6148C2.28857 3.11391 9.8857 -1.45091 17.3852 0.418943C24.8865 2.2888 29.451 9.88635 27.5809 17.3868Z" fill="#8434D8"/>
<path d="M13.9982 4L13.8672 4.41008V16.3095L13.9982 16.4298L19.9955 13.1649L13.9982 4Z" fill="white"/>
<path d="M13.9973 4L8 13.1649L13.9973 16.4299V10.6543V4Z" fill="white"/>
<path d="M13.9957 17.4781L13.9219 17.561V21.7998L13.9957 21.9983L19.9966 14.2148L13.9957 17.4781Z" fill="white"/>
<path d="M13.9973 21.9983V17.4781L8 14.2148L13.9973 21.9983Z" fill="white"/>
<path d="M14 16.4318L19.9973 13.1669L14 10.6562V16.4318Z" fill="white"/>
<path d="M8 13.1669L13.9972 16.4318V10.6562L8 13.1669Z" fill="white"/>
</g>
<defs>
<clipPath id="clip0_1794_6946">
<rect width="28" height="28" fill="white"/>
</clipPath>
</defs>
</svg>
